<svg width="61" height="61" viewBox="0 0 61 61" fill="none" xmlns="http://www.w3.org/2000/svg">
<rect width="61" height="61" rx="16" fill="#DD092E"/>
<path d="M42.8571 42.6412L38.5927 35.258C38.6562 34.9396 38.7201 34.6852 38.7201 34.4304C38.7836 34.1121 38.8476 33.6668 38.9111 33.5394C39.0385 33.412 39.4203 33.285 39.6747 33.1576C40.3113 32.9032 41.0749 32.6483 41.3933 31.9482C41.7116 31.248 41.5207 30.5479 41.2659 29.8478C41.1384 29.5295 41.0115 29.1477 41.0749 28.9568C41.1384 28.8293 41.3933 28.511 41.5842 28.2566C42.0299 27.8109 42.6026 27.1747 42.6026 26.4111C42.6026 25.6475 42.0299 25.0108 41.5842 24.5655C41.3933 24.3746 41.0749 24.0563 41.0749 23.8654C41.0115 23.6745 41.2024 23.2927 41.2659 22.9743C41.4568 22.3377 41.7116 21.5741 41.3933 20.874C41.0749 20.1738 40.3113 19.8555 39.6747 19.6646C39.4203 19.5372 38.9745 19.4102 38.9111 19.2828C38.7836 19.1553 38.7836 18.71 38.7201 18.3917C38.6567 17.7551 38.5292 16.928 37.8926 16.4822C37.4469 16.1004 36.9381 16.1004 36.5558 16.1004C36.3014 16.1004 36.11 16.1004 35.8556 16.1639C35.6647 16.1639 35.4738 16.2274 35.2829 16.2274C35.092 16.2274 34.9646 16.2274 34.9646 16.1639C34.8372 16.1004 34.5828 15.7181 34.3919 15.4637C34.01 14.891 33.5643 14.2543 32.8007 14.0635C32.6733 14.0635 32.5463 14 32.4189 14C31.8461 14 31.2734 14.3183 30.8277 14.6367C30.5733 14.8276 30.191 15.0185 30.0001 15.0185C29.8092 15.0185 29.4274 14.7641 29.1726 14.6367C28.6634 14.3823 28.1541 14 27.5814 14C27.454 14 27.327 14 27.1996 14.0635C26.436 14.2544 25.9902 14.891 25.6084 15.4637C25.4175 15.7181 25.2266 16.1004 25.0357 16.1639C25.0357 16.1639 24.9083 16.2274 24.7174 16.2274C24.5265 16.2274 24.3355 16.2274 24.1446 16.1639C23.8902 16.1639 23.6354 16.1004 23.4445 16.1004C23.0627 16.1004 22.5535 16.1639 22.1077 16.4822C21.471 16.9914 21.4075 17.755 21.2801 18.3917C21.2166 18.7101 21.1527 19.1554 21.0892 19.2828C20.9618 19.4102 20.58 19.5372 20.3256 19.6646C19.6889 19.919 18.9253 20.1738 18.607 20.874C18.2887 21.5741 18.4796 22.2742 18.7344 22.9743C18.8618 23.2927 18.9888 23.6745 18.9253 23.8654C18.8618 23.9928 18.607 24.3111 18.4161 24.5655C17.9703 25.0113 17.3976 25.6475 17.3976 26.4111C17.3976 27.1747 17.9704 27.8113 18.4161 28.2566C18.607 28.4475 18.9253 28.7659 18.9253 28.9568C18.9888 29.1477 18.7979 29.5295 18.7344 29.8478C18.5435 30.4844 18.2887 31.248 18.607 31.9482C18.9253 32.6483 19.6889 32.9666 20.3256 33.1576C20.58 33.285 21.0257 33.412 21.0892 33.5394C21.2166 33.6668 21.2166 34.1121 21.2801 34.4304C21.3436 34.6848 21.3436 35.0031 21.4075 35.258L17.1432 42.6412C16.9523 42.9595 16.9523 43.3413 17.1432 43.6596C17.3341 43.9779 17.6524 44.1689 18.0342 44.1689L22.426 43.7231L24.1446 47.6691C24.3355 47.9874 24.6538 48.2418 25.0356 48.2418C25.4174 48.2418 25.7358 48.0509 25.9267 47.7326L30.064 40.9226L34.01 47.7331C34.2009 48.0514 34.5192 48.2423 34.901 48.2423C35.2828 48.2423 35.6646 48.0514 35.8555 47.6056L37.5741 43.7232L41.9019 44.1689H41.9654C42.3472 44.1689 42.6655 43.978 42.8564 43.6597C43.0478 43.3413 43.0478 42.9595 42.8569 42.6412L42.8571 42.6412ZM32.5464 37.2309C32.4829 37.2309 32.4189 37.1674 32.292 37.1674C32.1011 37.1039 31.9101 36.9765 31.7827 36.8491C31.5283 36.6582 31.21 36.5308 30.8917 36.4034C30.6373 36.3399 30.3825 36.2759 30.1281 36.2759C29.4914 36.2759 28.9186 36.5943 28.4733 36.9126C28.2189 37.04 27.8367 37.2944 27.7097 37.2944C27.5823 37.2309 27.264 36.8487 27.137 36.5943C26.8187 36.1485 26.5003 35.5758 25.9276 35.3214C25.6093 35.194 25.2909 35.1305 24.9091 35.1305C24.6547 35.1305 24.4634 35.1305 24.209 35.194C24.0181 35.194 23.8272 35.2575 23.6363 35.2575C23.3819 35.2575 23.3179 35.194 23.3179 35.194C23.1905 35.0666 23.127 34.6213 23.127 34.303C23.0635 33.9846 22.9996 33.6028 22.8726 33.221C22.8091 33.0301 22.6817 32.7753 22.5543 32.5844C22.1725 32.1386 21.5998 31.8842 21.0266 31.6933C20.7723 31.5659 20.263 31.4389 20.1991 31.3115C20.1356 31.1841 20.3265 30.6749 20.39 30.4205C20.5809 29.9113 20.7718 29.2751 20.6444 28.7019C20.517 28.1292 20.0717 27.6834 19.6899 27.2381C19.499 27.0472 19.1172 26.6654 19.1172 26.538C19.1172 26.4106 19.499 26.0287 19.6899 25.8378C20.0717 25.456 20.5174 25.0103 20.6444 24.3741C20.7718 23.8013 20.5809 23.1647 20.39 22.6555C20.3265 22.4011 20.1356 21.9553 20.1991 21.8279C20.2626 21.7005 20.7718 21.5096 21.0266 21.4461C21.5359 21.2552 22.1721 21.0004 22.5543 20.5551C22.9361 20.0458 23 19.4731 23.127 18.9004C23.1905 18.646 23.2544 18.1367 23.3179 18.0093C23.3179 18.0093 23.3814 17.9458 23.6363 17.9458C23.8272 17.9458 24.0181 17.9458 24.209 18.0093C24.4634 18.0093 24.7182 18.0728 24.9091 18.0728C25.3549 18.0728 25.6728 18.0093 25.9276 17.8819C26.5003 17.6275 26.8186 17.1183 27.137 16.6091C27.2644 16.3547 27.5827 15.9724 27.7097 15.9089C27.8371 15.9089 28.2189 16.1633 28.4733 16.2907C28.9826 16.6091 29.4918 16.9274 30.1281 16.9274C30.7647 16.9274 31.3375 16.6091 31.7828 16.2907C32.0372 16.1633 32.4194 15.9089 32.5464 15.9089C32.6738 15.9724 32.9921 16.3547 33.1191 16.6091C33.4375 17.0548 33.7558 17.6275 34.3285 17.8819C34.6469 18.0093 34.9652 18.0728 35.347 18.0728C35.6014 18.0728 35.7927 18.0728 36.0471 18.0093C36.238 18.0093 36.4289 17.9458 36.6199 17.9458C36.8743 17.9458 36.9382 18.0093 36.9382 18.0093C37.0656 18.1367 37.1291 18.582 37.1291 18.9004C37.1926 19.4731 37.32 20.1098 37.7018 20.5551C38.0836 21.0008 38.6563 21.2552 39.2295 21.4461C39.4839 21.5735 39.9931 21.7005 40.057 21.8279C40.1205 21.9553 39.9296 22.4646 39.8661 22.719C39.6113 23.1012 39.4204 23.7379 39.5478 24.3106C39.6752 24.8833 40.1205 25.3291 40.5023 25.7744C40.6932 25.9653 41.075 26.3471 41.075 26.4745C41.075 26.6019 40.6932 26.9837 40.5023 27.1747C40.1205 27.5565 39.6748 28.0022 39.5478 28.6384C39.4204 29.2112 39.6113 29.8478 39.8022 30.4206C39.8657 30.6749 40.0566 31.1207 39.9931 31.2481C39.9296 31.3755 39.4204 31.5664 39.1655 31.6299C38.6563 31.8208 38.0201 32.0757 37.6379 32.521C37.5105 32.7119 37.3835 32.9028 37.3196 33.1576C37.1921 33.4759 37.1286 33.8578 37.0652 34.2396C37.0017 34.4939 36.9377 35.0032 36.8743 35.1306C36.8743 35.1306 36.8108 35.1941 36.5559 35.1941C36.365 35.1941 36.1741 35.1941 35.9832 35.1306C35.7288 35.1306 35.474 35.0671 35.2831 35.0671C34.8373 35.0671 34.5194 35.1306 34.2646 35.258C33.6919 35.5124 33.3736 36.0216 33.0552 36.5308C32.9282 36.7218 32.6738 37.1675 32.5464 37.231L32.5464 37.2309ZM25.2906 45.887L23.8904 42.6411C23.6995 42.3228 23.3811 42.0684 22.9993 42.0684L19.3078 42.4502L22.6811 36.5947C22.9994 36.7221 23.3178 36.7221 23.5721 36.7221C23.8265 36.7221 24.0179 36.7221 24.2723 36.6586C24.4632 36.6586 24.6541 36.5951 24.845 36.5951C25.0994 36.5951 25.1633 36.5951 25.1633 36.6586C25.2908 36.7221 25.5451 37.1043 25.7361 37.3587C26.1179 37.9315 26.5636 38.5681 27.3272 38.759C27.4547 38.759 27.5816 38.8225 27.7091 38.8225C28.2818 38.8225 28.8545 38.5041 29.3002 38.1858C29.5546 38.0584 29.8095 37.8675 30.0004 37.804L29.1728 39.2678L25.2906 45.887ZM37.2563 42.0679H37.1928C36.811 42.0679 36.4292 42.2589 36.2383 42.7046L34.838 45.887L31.019 39.3313L31.4647 38.5677C31.7831 38.7586 32.1649 38.886 32.5467 38.886C32.6741 38.886 32.8011 38.886 32.9285 38.8225C33.6921 38.6316 34.1379 37.995 34.5197 37.4223C34.7106 37.1679 34.9015 36.7856 35.0924 36.7221C35.0924 36.7221 35.2198 36.6586 35.4107 36.6586C35.6016 36.6586 35.7925 36.6586 35.9834 36.7221C36.2378 36.7221 36.4927 36.7856 36.6836 36.7856C36.938 36.7856 37.2563 36.7856 37.5746 36.6582L40.9479 42.5137L37.2563 42.0679ZM30.064 34.3669C25.7363 34.3669 22.1717 30.8662 22.1717 26.4745C22.1717 22.0828 25.7363 18.5825 30.064 18.5825C34.3918 18.5825 37.9564 22.0832 37.9564 26.4748C37.9564 30.8662 34.3918 34.3669 30.064 34.3669ZM30.064 20.2372C26.6273 20.2372 23.8267 23.0378 23.8267 26.4745C23.8267 29.9112 26.6273 32.7118 30.064 32.7118C33.5008 32.7118 36.3014 29.9112 36.3014 26.4745C36.3014 23.0378 33.5008 20.2372 30.064 20.2372Z" fill="white"/>
</svg>
