<svg width="162" height="160" viewBox="0 0 162 160" fill="none" xmlns="http://www.w3.org/2000/svg">
<path d="M23.0143 57.9816C24.0555 35.8802 34.2654 19.2074 53.0798 7.8425C62.2821 2.28331 72.4197 -0.0708888 83.1983 0.00162242C100.465 0.127309 117.737 0.035461 135.004 0.035461C138.268 0.035461 138.287 0.035461 137.718 3.24529C135.308 16.9402 132.821 30.6304 130.41 44.335C129.157 51.4556 128.188 58.6487 125.474 65.4164C117.689 84.8108 104.534 98.7136 84.0178 104.205C59.8671 110.668 34.4437 99.4532 25.6029 74.1709C23.7528 68.9805 22.8752 63.4919 23.0143 57.9816ZM89.4891 16.7856C84.3504 16.7856 79.2118 16.8291 74.0635 16.7856C72.4197 16.7614 71.5472 17.269 71.3254 19.0092C71.0314 21.3151 70.5011 23.5919 70.0817 25.8833C68.6356 33.8644 67.1894 41.8358 65.7047 49.8265C65.3769 51.5813 65.7047 52.4176 67.7293 52.2097C69.3322 52.0492 70.947 52.0492 72.5498 52.2097C76.8063 52.6303 79.395 54.8975 79.7806 58.349C80.3783 63.9469 76.5026 68.5441 70.9109 68.7036C66.9002 68.8148 62.8847 68.7858 58.8596 68.7036C57.4568 68.6746 56.9314 69.1 56.7048 70.526C56.1505 74.258 55.4563 77.9754 54.7188 81.6734C54.4874 82.8336 54.6609 83.2832 55.9239 83.259C61.2265 83.1672 66.529 83.4475 71.8316 83.0318C86.8523 81.8475 97.3803 70.5309 97.7514 55.4776C97.9684 47.1146 93.5721 41.1058 85.893 39.2592C84.6638 38.9643 82.8223 39.3752 82.3355 38.3746C81.892 37.4706 82.8175 35.9575 82.9814 34.6813C83.1983 33.0812 83.8202 32.4093 85.6086 32.4576C90.9111 32.6027 96.2137 32.4577 101.516 32.535C103.141 32.5592 104.11 32.3755 104.38 30.3742C104.891 26.5552 105.739 22.7847 106.51 19.0092C106.833 17.4237 106.563 16.7275 104.693 16.7759C99.6025 16.8726 94.5458 16.7904 89.4891 16.7856Z" fill="#DD2238"/>
<path d="M89.2154 17.0408C94.1791 17.0408 99.1522 17.1272 104.102 17.0025C105.938 16.9545 106.203 17.6454 105.886 19.2192C105.129 22.9666 104.296 26.7091 103.794 30.4997C103.529 32.4861 102.578 32.6685 100.983 32.6445C95.7785 32.5773 90.5735 32.7116 85.3684 32.5677C83.6129 32.5197 83.0025 33.1867 82.7896 34.7748C82.6193 36.0368 81.7202 37.5434 82.1555 38.4406C82.6287 39.4339 84.441 39.026 85.6476 39.3187C93.1996 41.166 97.515 47.1157 97.3068 55.4165C96.9283 70.3436 86.6082 81.5761 71.8638 82.7661C66.6919 83.1787 61.4538 82.9004 56.2725 82.9916C55.0327 83.0156 54.8529 82.5693 55.0895 81.4178C55.8135 77.7472 56.509 74.0574 57.039 70.3532C57.2472 68.9138 57.7772 68.5155 59.1541 68.5443C63.091 68.6307 67.0326 68.6595 70.9837 68.5443C76.4726 68.386 80.277 63.8229 79.6903 58.2666C79.3259 54.8408 76.7849 52.5904 72.5925 52.173C71.0191 52.0137 69.4341 52.0137 67.8607 52.173C65.897 52.3793 65.5516 51.5492 65.8733 49.8075C67.3402 41.8905 68.7408 33.9736 70.1698 26.0422C70.5815 23.7679 71.1162 21.5079 71.3906 19.2192C71.6083 17.4823 72.4648 16.9881 74.0783 17.0121C79.1272 17.084 84.1713 17.0408 89.2154 17.0408Z" fill="white"/>
<path d="M80.9596 144.01C82.2252 140.587 83.4926 137.166 84.7619 133.745C85.3494 132.16 85.9794 130.586 86.5246 128.98C86.7675 128.267 87.1799 128.08 87.8805 128.094C89.7167 128.134 91.5528 128.185 93.3833 128.094C94.6206 128.023 94.7957 128.549 94.6545 129.591C94.1262 133.853 93.646 138.129 93.146 142.396C92.598 147.09 92.0415 151.772 91.5048 156.472C91.2647 158.568 91.2844 158.568 89.146 158.568C87.9229 158.568 86.6997 158.54 85.4737 158.568C84.5754 158.597 84.2308 158.386 84.3918 157.349C84.841 154.454 85.1573 151.542 85.5218 148.636C85.6162 147.997 85.5768 147.346 85.4059 146.723C84.6301 148.606 83.8542 150.489 83.0783 152.372C82.4342 153.94 81.7619 155.497 81.1743 157.082C81.105 157.356 80.9389 157.596 80.7071 157.756C80.4753 157.916 80.1936 157.985 79.9144 157.952C78.6913 157.935 77.4653 157.903 76.2421 157.952C75.3467 157.994 75.1489 157.588 75.1122 156.776C74.9681 153.329 74.7619 149.886 74.5642 146.107C73.6828 147.851 73.6066 149.516 73.1941 151.048C72.6292 153.142 72.2054 155.273 71.7817 157.398C71.6122 158.25 71.2506 158.605 70.3693 158.565C68.9578 158.491 67.5435 158.491 66.132 158.565C64.9032 158.642 64.8185 158.091 65.0727 157.111C65.8863 153.963 66.6574 150.806 67.4569 147.653C68.9653 141.717 70.5275 135.796 71.9625 129.844C72.2902 128.492 72.81 127.952 74.2224 128.066C75.8668 128.166 77.5158 128.166 79.1602 128.066C80.0868 128.029 80.3523 128.35 80.3664 129.264C80.4229 133.663 80.5472 138.072 80.6489 142.459C80.6489 142.959 80.711 143.459 80.7421 143.959L80.9596 144.01Z" fill="#2E2C2B"/>
<path d="M131.153 158.545C130.356 158.545 129.561 158.545 128.764 158.545C127.053 158.545 127.035 158.508 127.354 156.838C127.919 153.864 128.447 150.882 129.05 147.914C129.209 147.131 129.113 146.881 128.187 146.878C125.314 146.864 125.317 146.824 124.822 149.459C124.326 152.094 123.788 154.752 123.329 157.404C123.179 158.258 122.809 158.602 121.862 158.571C119.978 158.505 118.084 158.517 116.188 158.571C115.164 158.596 114.913 158.286 115.101 157.307C116.421 150.432 117.693 143.546 118.983 136.665C119.443 134.201 119.93 131.737 120.318 129.267C120.453 128.413 120.769 128.026 121.725 128.052C123.663 128.103 125.607 128.098 127.539 128.052C128.567 128.029 128.818 128.356 128.614 129.321C128.017 132.192 127.53 135.086 126.936 137.96C126.703 139.098 127.041 139.409 128.25 139.383C130.768 139.303 130.717 139.36 131.105 137.038C131.55 134.383 132.121 131.743 132.598 129.091C132.73 128.354 133.058 128.046 133.871 128.063C135.861 128.103 137.852 128.103 139.843 128.063C140.847 128.043 140.972 128.436 140.811 129.293C139.195 137.75 137.63 146.218 136.033 154.678C135.274 158.551 135.25 158.545 131.153 158.545Z" fill="#2E2C2B"/>
<path d="M34.0976 141.766C33.5814 143.151 33.0804 144.445 32.6188 145.747C31.2251 149.681 29.8313 153.613 28.474 157.559C28.2371 158.247 27.891 158.557 27.0863 158.543C24.9152 158.503 22.738 158.514 20.5668 158.543C19.501 158.543 19.3887 158.153 19.753 157.306C23.1843 149.308 26.6004 141.304 30.0013 133.295C30.6086 131.853 31.2706 130.426 31.8536 128.973C32.1239 128.294 32.5429 128.041 33.3203 128.052C35.6432 128.092 37.9722 128.106 40.3043 128.052C41.2517 128.027 41.5189 128.354 41.5523 129.189C41.7588 133.349 42.029 137.502 42.2477 141.658C42.5179 146.776 42.7305 151.865 43.0341 156.965C43.104 158.122 42.8003 158.625 41.4764 158.568C39.6545 158.491 37.8326 158.5 36.0106 158.568C34.957 158.611 34.6138 158.301 34.6078 157.295C34.5804 152.422 34.4772 147.552 34.3861 142.679C34.38 142.418 34.5288 142.122 34.0976 141.766Z" fill="#2E2C2B"/>
<path d="M53.2722 158.547C51.0617 158.547 48.8452 158.493 46.6287 158.57C45.4691 158.61 45.2668 158.209 45.451 157.234C46.2965 152.824 46.7857 148.328 47.9906 144.008C49.2921 139.35 49.884 134.596 50.8654 129.901C51.1674 128.432 51.714 128.009 53.2812 128.054C57.2492 128.168 61.2262 128.111 65.1972 128.08C66.2964 128.08 66.7584 128.25 66.4051 129.455C66.0034 131.014 65.6929 132.593 65.475 134.184C65.3361 135.002 64.8711 135.269 64.0316 135.247C62.3737 135.201 60.7098 135.247 59.055 135.224C58.4661 135.224 58.2246 135.346 58.0857 135.969C57.3579 139.271 57.3277 139.262 60.8971 139.262C64.2399 139.262 64.2429 139.262 63.6511 142.32C63.5635 142.783 63.4548 143.244 63.3491 143.704C62.7451 146.239 62.7451 146.239 59.9488 146.239C56.1862 146.239 56.1862 146.239 55.4585 149.683C55.0961 151.406 55.0961 151.406 56.9683 151.406C58.5265 151.406 60.0878 151.406 61.646 151.406C62.3012 151.406 62.7572 151.582 62.6153 152.301C62.268 154.063 61.8634 155.813 61.5523 157.581C61.4134 158.36 61.0088 158.573 60.2236 158.561C57.9105 158.524 55.5974 158.547 53.2722 158.547Z" fill="#2E2C2B"/>
<path d="M9.43875 139.443C10.1604 139.395 10.8846 139.401 11.6055 139.461C13.0683 139.689 13.2855 139.005 13.0538 137.76C12.6511 135.476 10.8494 134.319 8.41913 134.859C5.73683 135.443 5.73682 135.443 5.43557 132.604C5.4066 132.311 5.35157 132.019 5.31971 131.727C4.99238 128.84 5.16618 128.496 7.9267 127.85C10.9653 127.14 14.0097 126.792 16.889 128.534C18.5708 129.53 19.805 131.145 20.3331 133.039C21.7235 137.714 21.1326 142.362 19.8088 146.94C18.5922 151.144 16.4631 154.785 12.7438 157.23C9.02453 159.676 5.02425 159.942 0.867543 158.381C0.0159261 158.063 -0.210015 157.651 0.195517 156.745C0.857631 155.242 1.44257 153.705 1.948 152.141C2.26373 151.194 2.6403 151.013 3.63096 151.337C7.24599 152.535 9.9167 151.212 11.3274 147.761C11.6489 146.981 11.4693 146.864 10.748 146.885C9.01004 146.911 7.27205 146.861 5.53405 146.905C4.62161 146.931 4.16684 146.695 4.36091 145.672C4.69692 143.919 4.9779 142.137 5.29654 140.372C5.4182 139.694 5.8411 139.411 6.53341 139.434C7.50089 139.458 8.47416 139.443 9.43875 139.443Z" fill="#2E2C2B"/>
<path d="M107.481 139.227C109.289 139.227 111.061 139.27 112.83 139.227C113.949 139.19 114.281 139.563 114.049 140.576C113.711 142.052 113.44 143.546 113.19 145.037C113.049 145.868 112.68 146.283 111.698 146.243C110.174 146.181 108.649 146.243 107.124 146.215C106.386 146.195 105.996 146.383 105.926 147.131C105.798 148.525 104.654 150.207 105.493 151.177C106.066 151.843 108.161 151.39 109.576 151.396C112.793 151.41 112.793 151.396 112.223 154.284C112.195 154.423 112.15 154.569 112.122 154.699C111.366 158.549 111.366 158.549 107.121 158.549C103.669 158.549 100.217 158.512 96.7534 158.572C95.6129 158.592 95.3446 158.213 95.5337 157.237C97.3633 147.85 99.1787 138.461 100.98 129.069C101.129 128.287 101.474 128.048 102.27 128.051C106.688 128.071 111.113 128.085 115.519 128.051C116.571 128.051 116.718 128.466 116.55 129.271C116.245 130.802 115.94 132.333 115.656 133.872C115.495 134.8 115.071 135.295 113.952 135.235C112.333 135.161 110.704 135.235 109.073 135.204C108.375 135.204 108.091 135.406 108.018 136.057C107.923 137.076 107.695 138.092 107.481 139.227Z" fill="#2E2C2B"/>
<path d="M152.854 128.06C155.526 128.06 158.199 128.06 160.871 128.06C161.586 128.06 162.153 128.123 161.963 129.056C161.595 130.859 161.201 132.66 160.909 134.477C160.763 135.39 160.307 135.587 159.448 135.592C158.161 135.592 156.452 135.023 155.693 135.843C154.933 136.662 154.974 138.317 154.738 139.614C153.66 145.468 152.58 151.319 151.569 157.185C151.385 158.257 150.956 158.607 149.864 158.57C148.07 158.496 146.268 158.516 144.472 158.57C143.444 158.598 143.243 158.223 143.421 157.284C144.621 150.975 145.772 144.655 146.952 138.343C147.469 135.572 147.486 135.575 144.545 135.575C142.23 135.575 142.235 135.575 142.638 133.368C142.884 132.02 143.147 130.674 143.342 129.32C143.471 128.427 143.845 128.029 144.846 128.052C147.507 128.1 150.179 128.06 152.854 128.06Z" fill="#2E2C2B"/>
</svg>
